<svg width="50" height="50" viewBox="0 0 50 50" fill="none" xmlns="http://www.w3.org/2000/svg">
<path fill-rule="evenodd" clip-rule="evenodd" d="M24.0684 6.38333C24.3455 6.50568 24.581 6.7059 24.7463 6.95963C24.9116 7.21335 24.9996 7.50966 24.9997 7.8125V42.1875C24.9999 42.4904 24.912 42.7868 24.7468 43.0407C24.5816 43.2946 24.3462 43.495 24.0691 43.6175C23.7921 43.74 23.4854 43.7794 23.1864 43.7308C22.8875 43.6822 22.609 43.5477 22.3851 43.3437L11.3747 33.3333H5.72884C4.76191 33.3333 3.83457 32.9492 3.15085 32.2655C2.46712 31.5818 2.08301 30.6544 2.08301 29.6875V20.3125C2.08301 18.3 3.71634 16.6667 5.72884 16.6667H11.3747L22.3851 6.65625C22.6093 6.45292 22.8877 6.31908 23.1866 6.271C23.4854 6.22292 23.7918 6.26267 24.0684 6.38542V6.38333ZM21.8747 11.3438L13.0309 19.3854C12.743 19.6471 12.3679 19.792 11.9788 19.7917H5.72884C5.59071 19.7917 5.45823 19.8465 5.36056 19.9442C5.26288 20.0419 5.20801 20.1744 5.20801 20.3125V29.6875C5.20801 29.975 5.44134 30.2083 5.72884 30.2083H11.9788C12.3679 30.2081 12.743 30.3529 13.0309 30.6146L21.8747 38.6563V11.3438Z" fill="#DEDEDE"/>
<path d="M38.996 8.79583C39.289 8.50322 39.6861 8.33887 40.1002 8.33887C40.5143 8.33887 40.9114 8.50322 41.2044 8.79583C50.1544 17.7458 50.1544 32.2542 41.2044 41.2042C40.9082 41.4802 40.5164 41.6304 40.1116 41.6233C39.7068 41.6161 39.3206 41.4521 39.0343 41.1659C38.748 40.8796 38.584 40.4934 38.5769 40.0886C38.5698 39.6838 38.72 39.292 38.996 38.9958C40.8342 37.158 42.2922 34.976 43.2871 32.5746C44.2819 30.1732 44.7939 27.5993 44.7939 25C44.7939 22.4007 44.2819 19.8268 43.2871 17.4254C42.2922 15.024 40.8342 12.842 38.996 11.0042C38.7034 10.7112 38.5391 10.3141 38.5391 9.89999C38.5391 9.48593 38.7034 9.0888 38.996 8.79583Z" fill="#DEDEDE"/>
<path d="M33.8391 16.1604C33.694 16.0153 33.5217 15.9002 33.332 15.8216C33.1424 15.7431 32.9392 15.7026 32.7339 15.7026C32.5286 15.7026 32.3254 15.7431 32.1358 15.8216C31.9461 15.9002 31.7738 16.0153 31.6287 16.1604C31.4836 16.3056 31.3684 16.4779 31.2899 16.6675C31.2113 16.8571 31.1709 17.0604 31.1709 17.2656C31.1709 17.4709 31.2113 17.6741 31.2899 17.8638C31.3684 18.0534 31.4836 18.2257 31.6287 18.3708C32.4993 19.2414 33.1898 20.2749 33.661 21.4123C34.1321 22.5498 34.3746 23.7689 34.3746 25C34.3746 26.2312 34.1321 27.4503 33.661 28.5877C33.1898 29.7251 32.4993 30.7586 31.6287 31.6292C31.3527 31.9254 31.2024 32.3171 31.2096 32.7219C31.2167 33.1267 31.3807 33.5129 31.667 33.7992C31.9533 34.0855 32.3395 34.2495 32.7443 34.2566C33.1491 34.2638 33.5408 34.1135 33.837 33.8375C36.1811 31.4933 37.4979 28.314 37.4979 24.999C37.4979 21.6839 36.1831 18.5046 33.8391 16.1604Z" fill="#DEDEDE"/>
</svg>
